<?xml version="1.0" encoding="UTF-8"?>
<svg width="22px" height="22px" viewBox="0 0 22 22" version="1.1" xmlns="http://www.w3.org/2000/svg" xmlns:xlink="http://www.w3.org/1999/xlink">
    <!-- Generator: Sketch 53.2 (72643) - https://sketchapp.com -->
    <title>icon/help</title>
    <desc>Created with Sketch.</desc>
    <g id="icon/help" stroke="none" stroke-width="1" fill="none" fill-rule="evenodd">
        <path d="M12,13 C12,13.5522847 11.5522847,14 11,14 C10.4477153,14 10,13.5522847 10,13 C10,11.6057552 10.5690453,10.677242 11.5735655,9.96888189 C11.7590227,9.83810259 12.2744625,9.51879618 12.3303302,9.47959666 C12.3748266,9.44837584 12.4018927,9.42650615 12.4124517,9.41597319 C12.7868227,9.04252456 13,8.53940604 13,8 C13,6.89543052 12.1045695,6 11,6 C10.41775,6 9.87801718,6.24886079 9.49986566,6.67722186 C9.32851921,6.87131907 9.1962358,7.09640774 9.11106993,7.34029271 C8.92899173,7.86170039 8.35870374,8.13678128 7.83729605,7.95470307 C7.31588837,7.77262487 7.04080748,7.20233688 7.22288569,6.68092919 C7.39382303,6.19142501 7.65854123,5.74099009 8.00051273,5.35361286 C8.75441544,4.49960974 9.83797611,4 11,4 C13.209139,4 15,5.79086101 15,8 C15,9.07615995 14.571699,10.0869908 13.8249199,10.83193 C13.7227273,10.9338708 13.6103177,11.0246986 13.4790658,11.1167914 C13.3600829,11.2002756 12.847318,11.5179249 12.7261575,11.603364 C12.2163989,11.9628318 12,12.3159307 12,13 Z M11,22 C4.92486775,22 0,17.0751322 0,11 C0,4.92486775 4.92486775,0 11,0 C17.0751322,0 22,4.92486775 22,11 C22,17.0751322 17.0751322,22 11,22 Z M11,20 C15.9705627,20 20,15.9705627 20,11 C20,6.02943725 15.9705627,2 11,2 C6.02943725,2 2,6.02943725 2,11 C2,15.9705627 6.02943725,20 11,20 Z M11,17 C10.4477153,17 10,16.5522847 10,16 C10,15.4477153 10.4477153,15 11,15 C11.5522847,15 12,15.4477153 12,16 C12,16.5522847 11.5522847,17 11,17 Z" id="Combined-Shape" fill="#8BB5C1"></path>
    </g>
</svg>