<svg xmlns="http://www.w3.org/2000/svg" xmlns:xlink="http://www.w3.org/1999/xlink" viewBox="0 0 352 56"><defs><style>.cls-1{fill:#333;}.cls-2{fill:url(#新規グラデーションスウォッチ_3);}.cls-3{fill:url(#新規グラデーションスウォッチ_1);}.cls-4{fill:url(#新規グラデーションスウォッチ_2);}</style><linearGradient id="新規グラデーションスウォッチ_3" x1="3.94" y1="39.3" x2="44.07" y2="39.3" gradientUnits="userSpaceOnUse"><stop offset="0" stop-color="#ffac3e"/><stop offset="1" stop-color="#fff177"/></linearGradient><linearGradient id="新規グラデーションスウォッチ_1" x1="3.94" y1="15.97" x2="44.07" y2="15.97" gradientUnits="userSpaceOnUse"><stop offset="0" stop-color="#a37455"/><stop offset="1" stop-color="#d8b58f"/></linearGradient><linearGradient id="新規グラデーションスウォッチ_2" x1="6.74" y1="39.3" x2="41.3" y2="39.3" gradientUnits="userSpaceOnUse"><stop offset="0.5" stop-color="#a37455"/><stop offset="1" stop-color="#bd9472"/></linearGradient></defs><title>logo_horizontal</title><g id="レイヤー_2" data-name="レイヤー 2"><g id="レイヤー_1-2" data-name="レイヤー 1"><path class="cls-1" d="M236,3a7,7,0,1,0,7,7A7,7,0,0,0,236,3Zm0,9a2,2,0,1,1,2-2A2,2,0,0,1,236,12Z"/><path class="cls-1" d="M173.37,49.52h.68a7.79,7.79,0,0,0,2.56-.38A13.88,13.88,0,0,1,173.37,49.52Zm-5.5-40.25H155.72a4,4,0,0,0-4,4v4.93a4,4,0,0,0,4,4h12.15a4,4,0,0,0,4-4V13.25A4,4,0,0,0,167.87,9.27Z"/><path class="cls-1" d="M124.27,25.36,121,13a5,5,0,0,0-5.34-4.11h-2.06c-3.43,0-5,2.1-4,5.41l3.87,12.5a5,5,0,0,0,5.39,3.92h1.3C123.6,30.71,125.12,28.66,124.27,25.36Z"/><path class="cls-1" d="M203.29,27.72h-1.86a4.9,4.9,0,0,0-5.25,4.2l-2.65,12c-.76,3.29-.47,5.25,2.92,5.25h2.63c2.86,0,3.87-1.38,4.53-4.2l2.79-12.73C207,29.53,206.11,27.76,203.29,27.72Z"/><path class="cls-1" d="M228,27.72h1.86a4.9,4.9,0,0,1,5.25,4.2l2.64,12c.77,3.29.48,5.25-2.91,5.25h-2.63c-2.86,0-3.87-1.38-4.53-4.2l-2.79-12.73C224.27,29.53,225.18,27.76,228,27.72Z"/><path class="cls-1" d="M94.8,31.36h3.91a4,4,0,0,0,4-4V16.76c0-3.34-2-4.92-5.21-4.25L83.3,15.33V13a4,4,0,0,0-4-4H75.53a4,4,0,0,0-4,3.93v4.7l-3.3.73c-2.87.57-4.25,2.29-4.25,5.2v1.39c0,3.34,2,4.92,5.2,4.29l2.35-.54v9.5c0,4,.74,7.55,4,9.44l0,0a17.11,17.11,0,0,0,6.9,1.45H97.56a4,4,0,0,0,4-4V42a4,4,0,0,0-4-4H87.28a4,4,0,0,1-4-4V26.36L90,25v2C90,29.83,91.71,31.36,94.8,31.36Z"/><path class="cls-1" d="M145,33.38c0,.33,0,.65,0,1s0,.68,0,1a14.13,14.13,0,0,1-10.91,13.77,13.82,13.82,0,0,1-3.24.38H116.38a4,4,0,0,1-4-4V40.71a4,4,0,0,1,4-4h10.9a6,6,0,0,0,5.94-5.62V20.65a4,4,0,0,1,4-4H141a4,4,0,0,1,4,4Z"/><path class="cls-1" d="M187.52,33.38c0,.33,0,.65,0,1s0,.68,0,1a14.13,14.13,0,0,1-10.91,13.77,13.88,13.88,0,0,1-3.24.38H158.88a4,4,0,0,1-4-4V40.71a4,4,0,0,1,4-4h10.9a6,6,0,0,0,5.94-5.62v-14a4,4,0,0,1,4-4h3.84a4,4,0,0,1,4,4Z"/><path class="cls-1" d="M234,18.7v1.66a4,4,0,0,1-4,4h-7.86V45.16a4,4,0,0,1-4,4h-5.25a4,4,0,0,1-4-4V24.34H201a4,4,0,0,1-4-4V17.29a4,4,0,0,1,4-4h7.93v-.45a4,4,0,0,1,4-4h5.25a4,4,0,0,1,4,4v.45h5.54A8.93,8.93,0,0,0,234,18.7Z"/><path class="cls-1" d="M137.9,13.2a5,5,0,1,1,0-6.47,7,7,0,0,0,0,6.47Z"/><path class="cls-1" d="M149.05,10a5,5,0,1,1-5-5A5,5,0,0,1,149.05,10Z"/><path class="cls-1" d="M314.7,37.43c0,.25,0,.48,0,.72s0,.51,0,.77a10.59,10.59,0,0,1-8.17,10.32,10.29,10.29,0,0,1-2.43.28h-8a3.21,3.21,0,0,1-3.58-3.58V43.51c0-2.23,1.15-3.47,3.3-3.57h5.62a4.47,4.47,0,0,0,4.45-4.22V25.83c0-2.33,1.25-3.57,3.58-3.57h1.67c2.34,0,3.59,1.24,3.59,3.57Z"/><path class="cls-1" d="M282.88,16.39v2.94c0,.15,0,.3,0,.44a4,4,0,0,1-4,3.54h-2.18V33.39c0,.32,0,.64,0,1s0,.69,0,1a14.12,14.12,0,0,1-10.9,13.76,14,14,0,0,1-3.25.38H251.06a4,4,0,0,1-4-4V40.72a4,4,0,0,1,4-4H259a6,6,0,0,0,5.94-5.62V23.39l-8.42.06L255.92,29c-.33,3-2,4.48-5,4.48h-3.3c-3.2,0-4.87-1.76-4.58-5l1.29-14.95.06-.57a0,0,0,0,0,0,0,6,6,0,0,1,.38-1.38v0C245.51,9.91,247,9,249.28,9h3.45c3.14,0,4.81,1.2,4.72,3.38H278.9A4,4,0,0,1,282.88,16.39Z"/><path class="cls-1" d="M347.23,21.4H333.49V12.86a4,4,0,0,0-4-4h-5.25a4,4,0,0,0-4,4V45.17a4,4,0,0,0,4,4h5.25a4,4,0,0,0,4-4V32.48h13.74c3.1,0,4.77-1.67,4.77-4.77V26.17C352,23.07,350.33,21.4,347.23,21.4Z"/><rect class="cls-1" x="285.51" y="19.92" width="7.73" height="15.97" rx="2.98"/><rect class="cls-1" x="294.75" y="19.92" width="7.73" height="15.97" rx="2.98"/><path class="cls-1" d="M48,19.65V33.77C48,46,37.24,56,24,56S0,46,0,33.77V19.65A14.23,14.23,0,0,1,14.21,5.4h3.68V4A4,4,0,0,1,21.82,0h4.37a4,4,0,0,1,3.94,4V5.4H33.8A14.22,14.22,0,0,1,48,19.65Z"/><path class="cls-2" d="M44.07,26.54v7.23c0,10.08-9,18.28-20.06,18.28S3.94,43.85,3.94,33.77V26.54Z"/><path class="cls-3" d="M44.07,19.65v2.94H3.94V19.65A10.29,10.29,0,0,1,14.21,9.35H33.8A10.29,10.29,0,0,1,44.07,19.65Z"/><path class="cls-4" d="M14.34,46.41a1.94,1.94,0,0,1-1.05-.31,16.64,16.64,0,0,1-3-2.48,2,2,0,0,1,.06-2.79,2,2,0,0,1,2.78.06,12,12,0,0,0,2.3,1.87,2,2,0,0,1-1.06,3.65Zm19.43,0a1.94,1.94,0,0,0,1-.31,16.64,16.64,0,0,0,3-2.48A2,2,0,1,0,35,40.89a12,12,0,0,1-2.29,1.87,2,2,0,0,0,1.06,3.65Zm-23-12V31a2,2,0,0,0-2-2h0a2,2,0,0,0-2,2v3.41a2,2,0,0,0,2,2h0A2,2,0,0,0,10.73,34.45Zm30.57,0V31a2,2,0,0,0-2-2h0a2,2,0,0,0-2,2v3.41a2,2,0,0,0,2,2h0A2,2,0,0,0,41.3,34.45ZM28.14,47.23A2,2,0,0,0,26,45.5c-.49.06-1,.09-1.49.11s-1,0-1.49-.11a2,2,0,0,0-.45,3.92c.64.08,1.29.11,1.94.13s1.31,0,1.95-.13A2,2,0,0,0,28.14,47.23Z"/></g></g></svg>